<svg width="193" height="45" viewBox="0 0 193 45" fill="none" xmlns="http://www.w3.org/2000/svg">
<g clip-path="url(#clip0_156_848)">
<path d="M1.65509 15.1762C2.41378 5.61627 9.76999 1.40504 16.2396 1.91849C21.224 2.31405 24.2685 5.28422 24.8752 6.86718L25.0347 6.87983L25.3282 3.18147L32.5256 3.75267L30.335 31.3559L23.1675 30.7871L23.4618 27.0787L23.3023 27.0661C22.4834 28.5359 19.0483 30.9918 13.9942 30.5907C7.46714 30.0426 0.897188 24.7262 1.65509 15.1762ZM24.3936 16.9808C24.533 15.992 24.4749 14.9855 24.2226 14.0194C23.9704 13.0532 23.529 12.1468 22.924 11.3524C22.3191 10.558 21.5626 9.89152 20.6983 9.39151C19.834 8.89149 18.8791 8.56786 17.8889 8.4394C17.6583 8.40103 17.4248 8.3825 17.1911 8.38402C15.1862 8.16795 13.1771 8.75224 11.6007 10.0098C10.0244 11.2673 9.00829 13.0964 8.77346 15.0991L8.72599 15.6973C8.589 16.6912 8.651 17.7025 8.90832 18.6723C9.16564 19.6421 9.61313 20.551 10.2249 21.3463C10.8366 22.1416 11.6004 22.8073 12.4718 23.3048C13.3431 23.8023 14.3046 24.1216 15.3004 24.2442L15.8986 24.2916C17.8972 24.5181 19.9041 23.944 21.4807 22.6951C23.0573 21.4461 24.0753 19.6238 24.3122 17.6264C24.3539 17.4133 24.3811 17.1976 24.3936 16.9808ZM33.7519 24.3242L39.6249 23.2554C39.7782 24.3244 40.2927 25.3087 41.0829 26.0448C41.873 26.7809 42.8913 27.2245 43.9684 27.3018C45.8026 27.4473 47.649 26.681 47.8041 24.7271C47.9109 23.3814 47.1272 22.3862 44.9814 21.3633L41.6343 19.8036C37.1194 17.7901 35.428 14.7066 35.6923 11.3771C36.0225 6.4578 40.6736 3.84758 45.9171 4.26372C50.9712 4.66482 54.4772 7.76189 55.0557 12.1013L49.3195 13.0906C49.1981 12.2322 48.7838 11.4421 48.1468 10.8541C47.5097 10.2661 46.6891 9.91629 45.8238 9.86388C43.9297 9.71357 42.7541 10.6234 42.6425 12.029C42.5492 13.2053 43.1678 14.2575 45.3216 15.1808L48.3775 16.6171C51.7301 18.107 55.3277 20.4289 54.9401 25.3135C54.5034 30.8162 49.4612 33.4255 43.6195 32.9619C38.061 32.4706 34.1743 29.4938 33.7519 24.3242ZM59.5008 5.89345L66.7679 6.47018L64.5773 34.0734L57.35 33.4998L59.5008 5.89345ZM68.6644 20.4942C69.4231 10.9342 76.7793 6.72299 83.2589 7.23722C88.2432 7.63279 91.2878 10.603 91.8945 12.1859L92.044 12.1978L92.3375 8.49942L99.5448 9.07141L97.3542 36.6746L90.117 36.1003L90.4113 32.3919L90.2916 32.3824C89.4728 33.8523 86.0377 36.3082 80.9836 35.9071C74.5064 35.363 67.9065 30.0441 68.6644 20.4942ZM91.4029 22.2987C91.5674 20.2259 90.9017 18.1727 89.5524 16.5907C88.203 15.0087 86.2804 14.0275 84.2077 13.863C82.1349 13.6986 80.0817 14.3642 78.4997 15.7136C76.9177 17.0629 75.9365 18.9855 75.772 21.0582C75.6075 23.131 76.2732 25.1843 77.6225 26.7663C78.9719 28.3482 80.8944 29.3294 82.9672 29.4939C85.04 29.6584 87.0932 28.9928 88.6752 27.6434C90.2572 26.2941 91.2384 24.3715 91.4029 22.2987Z" fill="#343838"/>
<path d="M117.232 9.93343C120.053 10.1988 122.732 11.2921 124.933 13.0758C127.134 14.8594 128.759 17.254 129.603 19.9584C130.447 22.6628 130.473 25.5564 129.678 28.2755C128.882 30.9946 127.301 33.4179 125.132 35.2407C122.963 37.0636 120.304 38.2047 117.488 38.5206C114.673 38.8365 111.827 38.3132 109.308 37.0163C106.789 35.7194 104.71 33.7069 103.332 31.2318C101.953 28.7566 101.337 25.9292 101.561 23.1049C101.894 19.2806 103.731 15.7449 106.67 13.275C109.609 10.8052 113.408 9.60321 117.232 9.93343ZM160.28 25.3173L158.99 41.5662L151.793 40.995L152.988 25.9323C153.31 21.8851 151.306 19.0678 147.538 18.7687C143.77 18.4697 141.347 20.9357 141.026 24.983L139.831 40.0457L132.603 39.4721L134.794 11.8689L141.991 12.4401L141.693 16.1982C142.733 14.8715 144.102 13.8398 145.664 13.2053C147.226 12.5709 148.927 12.3558 150.597 12.5813C156.359 13.0386 160.947 16.9137 160.28 25.3173ZM190.721 32.9595L169.787 31.2981C170.484 35.1454 173.688 37.3758 177.885 37.7089C180.506 38.0042 183.143 37.3203 185.29 35.7887L188.238 39.4635C186.704 40.9487 184.86 42.0763 182.839 42.7657C180.817 43.455 178.669 43.689 176.546 43.451C168.841 42.8394 162.364 37.0991 163.088 27.9778C163.183 26.0873 163.663 24.236 164.497 22.5371C165.332 20.8381 166.504 19.3273 167.943 18.0969C169.381 16.8665 171.055 15.9424 172.863 15.3811C174.671 14.8198 176.574 14.6331 178.456 14.8324C185.607 15.3598 193.241 20.9211 190.721 32.9595ZM170.069 26.0942L184.723 27.2571C184.601 23.2348 181.402 21.075 178.022 20.8068C176.285 20.6047 174.533 21.025 173.077 21.9931C171.621 22.9612 170.555 24.4143 170.069 26.0942Z" fill="#343838"/>
</g>
<defs>
<clipPath id="clip0_156_848">
<rect width="190.08" height="28.8" fill="white" transform="translate(2.79272 0.841309) rotate(4.53756)"/>
</clipPath>
</defs>
</svg>
